<svg width="45" height="45" viewBox="0 0 45 45" fill="none" xmlns="http://www.w3.org/2000/svg">
<path d="M18.9286 2.06197C21.1386 0.786017 23.8614 0.786017 26.0714 2.06197L38.4141 9.18804C40.6242 10.464 41.9856 12.822 41.9856 15.3739V29.6261C41.9856 32.178 40.6242 34.536 38.4141 35.812L26.0714 42.938C23.8614 44.214 21.1386 44.214 18.9286 42.938L6.58586 35.812C4.37585 34.536 3.01443 32.178 3.01443 29.6261V15.3739C3.01443 12.822 4.37585 10.464 6.58586 9.18803L18.9286 2.06197Z" fill="#50B5FF"/>
<path fill-rule="evenodd" clip-rule="evenodd" d="M25.4812 17.6604C25.9566 17.0248 26.2382 16.2357 26.2382 15.3808C26.2382 13.2769 24.5326 11.5713 22.4287 11.5713C20.3248 11.5713 18.6192 13.2769 18.6192 15.3808C18.6192 16.236 18.901 17.0254 19.3768 17.6611C19.3043 17.9902 19.2233 18.3485 19.1556 18.6237C18.6774 20.566 17.9163 21.6719 16.2842 23.3473C16.0654 23.572 15.8117 23.8512 15.5771 24.1161C15.3291 24.0653 15.0722 24.0386 14.8092 24.0386C12.7052 24.0386 10.9996 25.7442 10.9996 27.8482C10.9996 29.9521 12.7052 31.6577 14.8092 31.6577C16.4252 31.6577 17.8062 30.6514 18.3598 29.2313C18.8437 29.0484 19.4958 28.8255 19.9758 28.7501C22.0838 28.4189 23.5141 28.3936 25.3446 28.9172C25.6984 29.0184 26.1447 29.1562 26.5131 29.2722C27.0771 30.6707 28.4471 31.6577 30.0476 31.6577C32.1515 31.6577 33.8571 29.9521 33.8571 27.8482C33.8571 25.7442 32.1515 24.0386 30.0476 24.0386C29.6943 24.0386 29.3524 24.0867 29.0278 24.1767C28.7416 23.9237 28.455 23.648 28.2576 23.4037C26.9168 21.7436 26.1797 20.5177 25.718 18.6706C25.6425 18.3686 25.5566 17.9962 25.4812 17.6604ZM17.4914 25.143C17.9447 25.5924 18.2856 26.1549 18.4683 26.7847C18.9064 26.8701 19.4491 26.9821 19.8686 27.0887C22.1356 27.6643 23.4739 27.7705 25.3951 27.2135C25.6709 27.1335 26.0274 27.0227 26.352 26.9198C26.5016 26.322 26.7926 25.7802 27.1873 25.3319C27.0743 24.994 26.9582 24.6315 26.8724 24.3272C26.2374 22.0761 25.6602 20.864 24.2172 19.4787C24.0638 19.3314 23.8736 19.1543 23.6831 18.979C23.2903 19.1159 22.8682 19.1903 22.4287 19.1903C21.9903 19.1903 21.5693 19.1163 21.1773 18.98C20.9787 19.1644 20.7761 19.3546 20.6058 19.5193C19.237 20.8427 18.5438 22.094 17.7767 24.0853C17.6633 24.3794 17.5675 24.7674 17.4914 25.143Z" fill="white"/>
</svg>
