<svg width="160" height="45" viewBox="0 0 160 45" fill="none" xmlns="http://www.w3.org/2000/svg">
<path d="M18.9286 2.06197C21.1386 0.786017 23.8614 0.786017 26.0714 2.06197L38.4141 9.18804C40.6242 10.464 41.9856 12.822 41.9856 15.3739V29.6261C41.9856 32.178 40.6242 34.536 38.4141 35.812L26.0714 42.938C23.8614 44.214 21.1386 44.214 18.9286 42.938L6.58586 35.812C4.37585 34.536 3.01443 32.178 3.01443 29.6261V15.3739C3.01443 12.822 4.37585 10.464 6.58586 9.18804L18.9286 2.06197Z" fill="white"/>
<path fill-rule="evenodd" clip-rule="evenodd" d="M25.4812 17.6604C25.9566 17.0248 26.2382 16.2357 26.2382 15.3808C26.2382 13.2769 24.5326 11.5713 22.4287 11.5713C20.3248 11.5713 18.6192 13.2769 18.6192 15.3808C18.6192 16.236 18.901 17.0254 19.3768 17.6611C19.3043 17.9902 19.2233 18.3485 19.1556 18.6237C18.6774 20.566 17.9163 21.6719 16.2842 23.3473C16.0654 23.572 15.8117 23.8512 15.5771 24.1161C15.3291 24.0653 15.0722 24.0386 14.8092 24.0386C12.7052 24.0386 10.9996 25.7442 10.9996 27.8482C10.9996 29.9521 12.7052 31.6577 14.8092 31.6577C16.4252 31.6577 17.8062 30.6514 18.3598 29.2313C18.8437 29.0484 19.4958 28.8255 19.9758 28.7501C22.0838 28.4189 23.5141 28.3936 25.3446 28.9172C25.6984 29.0184 26.1447 29.1562 26.5131 29.2722C27.0771 30.6707 28.4471 31.6577 30.0476 31.6577C32.1515 31.6577 33.8571 29.9521 33.8571 27.8482C33.8571 25.7442 32.1515 24.0386 30.0476 24.0386C29.6943 24.0386 29.3524 24.0867 29.0278 24.1767C28.7416 23.9237 28.455 23.648 28.2576 23.4037C26.9168 21.7436 26.1797 20.5177 25.718 18.6706C25.6425 18.3686 25.5566 17.9962 25.4812 17.6604ZM17.4914 25.143C17.9447 25.5924 18.2856 26.1549 18.4683 26.7847C18.9064 26.8701 19.4491 26.9821 19.8686 27.0887C22.1356 27.6643 23.4739 27.7705 25.3951 27.2135C25.6709 27.1335 26.0274 27.0227 26.352 26.9198C26.5016 26.322 26.7926 25.7802 27.1873 25.3319C27.0743 24.994 26.9582 24.6315 26.8724 24.3272C26.2374 22.0761 25.6602 20.864 24.2172 19.4787C24.0638 19.3314 23.8736 19.1543 23.6831 18.979C23.2903 19.1159 22.8682 19.1903 22.4287 19.1903C21.9903 19.1903 21.5693 19.1163 21.1773 18.98C20.9787 19.1644 20.7761 19.3546 20.6058 19.5193C19.237 20.8427 18.5438 22.094 17.7767 24.0853C17.6633 24.3794 17.5675 24.7674 17.4914 25.143Z" fill="#50B5FF"/>
<path d="M72.16 12.97C72.68 12.97 73.1 13.15 73.42 13.51C73.74 13.85 73.9 14.28 73.9 14.8V25.66C73.9 27.32 73.54 28.79 72.82 30.07C72.12 31.35 71.15 32.35 69.91 33.07C68.67 33.79 67.23 34.15 65.59 34.15C63.95 34.15 62.5 33.79 61.24 33.07C60 32.35 59.02 31.35 58.3 30.07C57.6 28.79 57.25 27.32 57.25 25.66V14.8C57.25 14.28 57.43 13.85 57.79 13.51C58.15 13.15 58.61 12.97 59.17 12.97C59.63 12.97 60.04 13.15 60.4 13.51C60.78 13.85 60.97 14.28 60.97 14.8V25.66C60.97 26.66 61.18 27.53 61.6 28.27C62.04 28.99 62.61 29.55 63.31 29.95C64.03 30.35 64.79 30.55 65.59 30.55C66.45 30.55 67.25 30.35 67.99 29.95C68.73 29.55 69.33 28.99 69.79 28.27C70.25 27.53 70.48 26.66 70.48 25.66V14.8C70.48 14.28 70.63 13.85 70.93 13.51C71.23 13.15 71.64 12.97 72.16 12.97ZM86.6823 17.65C88.1623 17.65 89.2823 17.96 90.0423 18.58C90.8223 19.2 91.3523 20.03 91.6323 21.07C91.9323 22.09 92.0823 23.23 92.0823 24.49V32.17C92.0823 32.69 91.9123 33.13 91.5723 33.49C91.2323 33.83 90.8023 34 90.2823 34C89.7623 34 89.3323 33.83 88.9923 33.49C88.6523 33.13 88.4823 32.69 88.4823 32.17V24.49C88.4823 23.83 88.3923 23.24 88.2123 22.72C88.0523 22.18 87.7523 21.75 87.3123 21.43C86.8723 21.11 86.2423 20.95 85.4223 20.95C84.6223 20.95 83.9423 21.11 83.3823 21.43C82.8423 21.75 82.4223 22.18 82.1223 22.72C81.8423 23.24 81.7023 23.83 81.7023 24.49V32.17C81.7023 32.69 81.5323 33.13 81.1923 33.49C80.8523 33.83 80.4223 34 79.9023 34C79.3823 34 78.9523 33.83 78.6123 33.49C78.2723 33.13 78.1023 32.69 78.1023 32.17V19.78C78.1023 19.26 78.2723 18.83 78.6123 18.49C78.9523 18.13 79.3823 17.95 79.9023 17.95C80.4223 17.95 80.8523 18.13 81.1923 18.49C81.5323 18.83 81.7023 19.26 81.7023 19.78V21.07L81.2523 20.98C81.4323 20.64 81.6923 20.28 82.0323 19.9C82.3723 19.5 82.7723 19.13 83.2323 18.79C83.6923 18.45 84.2123 18.18 84.7923 17.98C85.3723 17.76 86.0023 17.65 86.6823 17.65ZM99.3634 32.17C99.3634 32.69 99.1934 33.13 98.8534 33.49C98.5134 33.83 98.0834 34 97.5634 34C97.0434 34 96.6134 33.83 96.2734 33.49C95.9334 33.13 95.7634 32.69 95.7634 32.17V19.78C95.7634 19.26 95.9334 18.83 96.2734 18.49C96.6134 18.13 97.0434 17.95 97.5634 17.95C98.0834 17.95 98.5134 18.13 98.8534 18.49C99.1934 18.83 99.3634 19.26 99.3634 19.78V32.17ZM97.5334 16C96.8534 16 96.3734 15.89 96.0934 15.67C95.8134 15.45 95.6734 15.06 95.6734 14.5V13.93C95.6734 13.35 95.8234 12.96 96.1234 12.76C96.4434 12.54 96.9234 12.43 97.5634 12.43C98.2634 12.43 98.7534 12.54 99.0334 12.76C99.3134 12.98 99.4534 13.37 99.4534 13.93V14.5C99.4534 15.08 99.3034 15.48 99.0034 15.7C98.7034 15.9 98.2134 16 97.5334 16ZM110.053 17.65C111.193 17.65 112.183 17.77 113.023 18.01C113.883 18.25 114.543 18.59 115.003 19.03C115.483 19.45 115.723 19.96 115.723 20.56C115.723 20.96 115.603 21.34 115.363 21.7C115.123 22.04 114.773 22.21 114.313 22.21C113.993 22.21 113.723 22.17 113.503 22.09C113.303 21.99 113.123 21.87 112.963 21.73C112.803 21.59 112.613 21.46 112.393 21.34C112.193 21.22 111.883 21.13 111.463 21.07C111.063 20.99 110.763 20.95 110.563 20.95C109.543 20.95 108.673 21.17 107.953 21.61C107.253 22.05 106.713 22.65 106.333 23.41C105.953 24.15 105.763 25.01 105.763 25.99C105.763 26.95 105.953 27.81 106.333 28.57C106.733 29.31 107.273 29.9 107.953 30.34C108.653 30.78 109.453 31 110.353 31C110.853 31 111.283 30.97 111.643 30.91C112.003 30.85 112.303 30.76 112.543 30.64C112.823 30.48 113.073 30.31 113.293 30.13C113.513 29.95 113.843 29.86 114.283 29.86C114.803 29.86 115.203 30.03 115.483 30.37C115.763 30.69 115.903 31.09 115.903 31.57C115.903 32.07 115.623 32.53 115.063 32.95C114.503 33.35 113.763 33.68 112.843 33.94C111.943 34.18 110.963 34.3 109.903 34.3C108.323 34.3 106.953 33.94 105.793 33.22C104.633 32.48 103.733 31.48 103.093 30.22C102.473 28.96 102.163 27.55 102.163 25.99C102.163 24.35 102.493 22.91 103.153 21.67C103.833 20.41 104.763 19.43 105.943 18.73C107.143 18.01 108.513 17.65 110.053 17.65ZM121.893 32.17C121.893 32.69 121.723 33.13 121.383 33.49C121.043 33.83 120.613 34 120.093 34C119.573 34 119.143 33.83 118.803 33.49C118.463 33.13 118.293 32.69 118.293 32.17V19.78C118.293 19.26 118.463 18.83 118.803 18.49C119.143 18.13 119.573 17.95 120.093 17.95C120.613 17.95 121.043 18.13 121.383 18.49C121.723 18.83 121.893 19.26 121.893 19.78V32.17ZM120.063 16C119.383 16 118.903 15.89 118.623 15.67C118.343 15.45 118.203 15.06 118.203 14.5V13.93C118.203 13.35 118.353 12.96 118.653 12.76C118.973 12.54 119.453 12.43 120.093 12.43C120.793 12.43 121.283 12.54 121.563 12.76C121.843 12.98 121.983 13.37 121.983 13.93V14.5C121.983 15.08 121.833 15.48 121.533 15.7C121.233 15.9 120.743 16 120.063 16ZM141.013 25.99C141.013 27.63 140.643 29.08 139.903 30.34C139.183 31.58 138.203 32.55 136.963 33.25C135.743 33.95 134.373 34.3 132.853 34.3C131.333 34.3 129.953 33.95 128.713 33.25C127.493 32.55 126.513 31.58 125.773 30.34C125.053 29.08 124.693 27.63 124.693 25.99C124.693 24.35 125.053 22.91 125.773 21.67C126.513 20.41 127.493 19.43 128.713 18.73C129.953 18.01 131.333 17.65 132.853 17.65C134.373 17.65 135.743 18.01 136.963 18.73C138.203 19.43 139.183 20.41 139.903 21.67C140.643 22.91 141.013 24.35 141.013 25.99ZM137.413 25.99C137.413 24.97 137.203 24.09 136.783 23.35C136.383 22.59 135.833 22 135.133 21.58C134.453 21.16 133.693 20.95 132.853 20.95C132.013 20.95 131.243 21.16 130.543 21.58C129.863 22 129.313 22.59 128.893 23.35C128.493 24.09 128.293 24.97 128.293 25.99C128.293 26.99 128.493 27.87 128.893 28.63C129.313 29.37 129.863 29.95 130.543 30.37C131.243 30.79 132.013 31 132.853 31C133.693 31 134.453 30.79 135.133 30.37C135.833 29.95 136.383 29.37 136.783 28.63C137.203 27.87 137.413 26.99 137.413 25.99ZM152.6 17.65C154.08 17.65 155.2 17.96 155.96 18.58C156.74 19.2 157.27 20.03 157.55 21.07C157.85 22.09 158 23.23 158 24.49V32.17C158 32.69 157.83 33.13 157.49 33.49C157.15 33.83 156.72 34 156.2 34C155.68 34 155.25 33.83 154.91 33.49C154.57 33.13 154.4 32.69 154.4 32.17V24.49C154.4 23.83 154.31 23.24 154.13 22.72C153.97 22.18 153.67 21.75 153.23 21.43C152.79 21.11 152.16 20.95 151.34 20.95C150.54 20.95 149.86 21.11 149.3 21.43C148.76 21.75 148.34 22.18 148.04 22.72C147.76 23.24 147.62 23.83 147.62 24.49V32.17C147.62 32.69 147.45 33.13 147.11 33.49C146.77 33.83 146.34 34 145.82 34C145.3 34 144.87 33.83 144.53 33.49C144.19 33.13 144.02 32.69 144.02 32.17V19.78C144.02 19.26 144.19 18.83 144.53 18.49C144.87 18.13 145.3 17.95 145.82 17.95C146.34 17.95 146.77 18.13 147.11 18.49C147.45 18.83 147.62 19.26 147.62 19.78V21.07L147.17 20.98C147.35 20.64 147.61 20.28 147.95 19.9C148.29 19.5 148.69 19.13 149.15 18.79C149.61 18.45 150.13 18.18 150.71 17.98C151.29 17.76 151.92 17.65 152.6 17.65Z" fill="white"/>
</svg>
